<svg xmlns="http://www.w3.org/2000/svg" width="184.28" height="41.637" viewBox="0 0 184.28 41.637">
  <g id="Raggruppa_272" data-name="Raggruppa 272" transform="translate(-56.449 -366.209)">
    <g id="Raggruppa_164" data-name="Raggruppa 164" transform="translate(204.049 374.763)">
      <path id="Tracciato_48" data-name="Tracciato 48" d="M455.44,391.407l-.176.268.176-.27Zm.25-2.462c-1.445-.207-2.611-.364-2.611-.364h-.025a9.291,9.291,0,0,0-7.688,3.661v-3.563h-2.856v24.139h2.856v-10.84c0-3.443.722-6.027,2.1-7.794a6.429,6.429,0,0,1,5.25-2.768h.022c.9.1,1.581.178,2.032.234.226.027.783.117.783.117l.52.092V389Z" transform="translate(-442.509 -388.582)" fill="#fe5000"/>
    </g>
    <path id="Tracciato_49" data-name="Tracciato 49" d="M492.9,386.568l10.813-11.709-3.578,0-14.079,15.253V366.214h-2.9V399h2.9v-5.075l5.061-5.466L500.691,399h3.6Z" transform="translate(-263.564 -0.003)" fill="#fe5000"/>
    <path id="Tracciato_50" data-name="Tracciato 50" d="M73.991,410.174H61.015a1.955,1.955,0,0,1-1.176-.528,1.571,1.571,0,0,1-.369-1.123l0-19.6H56.449V408.5a4.166,4.166,0,0,0,1.748,3.607,5.038,5.038,0,0,0,2.987.921H74.431v-2.853Z" transform="translate(0 -14.029)" fill="#fe5000"/>
    <path id="Tracciato_51" data-name="Tracciato 51" d="M178.152,374.862l-.106.288-7.55,20.423a2.253,2.253,0,0,1-.338.659.373.373,0,0,1-.119.1,2.23,2.23,0,0,1-.428-.792l-10.616-29.331-3.119.009,11.173,30.617c.6,1.643,1.627,2.647,3,2.647h.015c1.364.005,2.385-1,2.988-2.64l8.208-21.983Z" transform="translate(-61.413 0)" fill="#fe5000"/>
    <path id="Tracciato_52" data-name="Tracciato 52" d="M318.981,388.5a3.078,3.078,0,0,0-2.309-.808,3.3,3.3,0,0,0-3.313,2.678l-7.872,27.224a1.869,1.869,0,0,1-.232.534c-.076.1-.094.086-.094.088s-.04.005-.117-.1a1.831,1.831,0,0,1-.239-.553l-7.836-27.2a3.234,3.234,0,0,0-3.236-2.682,3.151,3.151,0,0,0-2.349.814,3.293,3.293,0,0,0-.8,2.385l0,21.377h2.872l0-21.5a.811.811,0,0,1,.094-.455c.045-.058.07-.079.2-.083.063-.02.266.112.436.695l7.677,26.655c.653,2.255,1.746,3.535,3.295,3.538s2.642-1.283,3.3-3.536l7.677-26.657c.173-.583.376-.718.45-.695.132,0,.164.027.209.084a.8.8,0,0,1,.094.454l0,21.5h2.872l.005-21.4a3.283,3.283,0,0,0-.783-2.368" transform="translate(-144.622 -13.269)" fill="#fe5000"/>
    <path id="Tracciato_53" data-name="Tracciato 53" d="M394.375,404.329a11.588,11.588,0,0,1-5.021,4.591,9.072,9.072,0,0,1-4.085.939,8.685,8.685,0,0,1-6.778-2.721,11.3,11.3,0,0,1,.047-13.915,8.633,8.633,0,0,1,6.731-2.743,8.107,8.107,0,0,1,6.916,3.292,12.3,12.3,0,0,1,2.19,7.564Zm.037-16.219v3.855a11.452,11.452,0,0,0-9.25-4.263,11.608,11.608,0,0,0-8.887,3.507,13.985,13.985,0,0,0,.126,18.008,11.728,11.728,0,0,0,8.835,3.493h.022a12.615,12.615,0,0,0,9.155-3.957v3.524h2.9V388.111Z" transform="translate(-195.559 -13.276)" fill="#fe5000"/>
    <path id="Tracciato_54" data-name="Tracciato 54" d="M120.469,407.07a8.511,8.511,0,0,1-6.657,2.789,8.623,8.623,0,0,1-6.722-2.766,11.127,11.127,0,0,1,0-13.849,8.672,8.672,0,0,1,6.722-2.764,8.531,8.531,0,0,1,6.679,2.764,11.054,11.054,0,0,1-.022,13.825m2.18-15.79A12.7,12.7,0,0,0,105,391.255a13.518,13.518,0,0,0,0,17.916,11.7,11.7,0,0,0,8.81,3.54h.02a11.626,11.626,0,0,0,8.779-3.529,13.674,13.674,0,0,0,.036-17.9" transform="translate(-27.895 -13.276)" fill="#fe5000"/>
    <path id="Tracciato_55" data-name="Tracciato 55" d="M223.637,398.522a9.106,9.106,0,0,1,18.154,0Zm17.808-7.39h0a12.705,12.705,0,0,0-17.493.12,12.467,12.467,0,0,0-3.394,8.966,12.253,12.253,0,0,0,3.461,9.006,12.12,12.12,0,0,0,8.962,3.486H233c4.481,0,7.949-1.179,10.3-3.6l.312-.319-2.133-2.03-.306.319a8.681,8.681,0,0,1-3.756,2.122,14.348,14.348,0,0,1-4.415.723,9.088,9.088,0,0,1-6.643-2.478,9.417,9.417,0,0,1-2.743-6.139h21.026l.09-.324a4.447,4.447,0,0,0,.137-1.175,11.8,11.8,0,0,0-3.425-8.678" transform="translate(-101.366 -13.276)" fill="#fe5000"/>
  </g>
</svg>
